<svg viewBox="-300,-300,600,600" xmlns="http://www.w3.org/2000/svg" version="1.1">
<defs><marker id="arrow-Zuneigung" viewBox="0 -5 16 16" refX="15" refY="-0.5" markerWidth="6" markerHeight="6" orient="auto"><path fill="green" d="M0,-5L10,0L0,5"></path></marker><marker id="arrow-Abneigung" viewBox="0 -5 16 16" refX="15" refY="-0.5" markerWidth="6" markerHeight="6" orient="auto"><path fill="red" d="M0,-5L10,0L0,5"></path></marker><marker id="arrow-GgsZuneigung" viewBox="0 -5 16 16" refX="15" refY="-0.5" markerWidth="6" markerHeight="6" orient="auto"><path fill="green" d="M0,-5L10,0L0,5"></path></marker><marker id="arrow-GgsAbneigung" viewBox="0 -5 16 16" refX="15" refY="-0.5" markerWidth="6" markerHeight="6" orient="auto"><path fill="red" d="M0,-5L10,0L0,5"></path></marker><marker id="arrow-Neutral" viewBox="0 -5 16 16" refX="15" refY="-0.5" markerWidth="6" markerHeight="6" orient="auto"><path fill="gray" d="M0,-5L10,0L0,5"></path></marker></defs><g fill="none" stroke-width="1.5"><path stroke="green" marker-end="url(http://localhost:3000/app#arrow-Zuneigung)" d="
      M127.28652333901424,-143.83053066857983
      A95.86275738267108,95.86275738267108 0 0,1 134.47448708205815,-48.23763642304742
    "></path><path stroke="red" marker-end="url(http://localhost:3000/app#arrow-Abneigung)" d="
      M127.28652333901424,-143.83053066857983
      A226.3605483373807,226.3605483373807 0 0,1 -93.890510383931,-95.66604585747857
    "></path><path stroke="green" marker-end="url(http://localhost:3000/app#arrow-Zuneigung)" d="
      M127.28652333901424,-143.83053066857983
      A95.86275738267108,95.86275738267108 0 0,1 134.47448708205815,-48.23763642304742
    "></path><path stroke="red" marker-end="url(http://localhost:3000/app#arrow-Abneigung)" d="
      M127.28652333901424,-143.83053066857983
      A226.3605483373807,226.3605483373807 0 0,1 -93.890510383931,-95.66604585747857
    "></path><path stroke="green" marker-end="url(http://localhost:3000/app#arrow-Zuneigung)" d="
      M127.28652333901424,-143.83053066857983
      A95.86275738267108,95.86275738267108 0 0,1 134.47448708205815,-48.23763642304742
    "></path><path stroke="red" marker-end="url(http://localhost:3000/app#arrow-Abneigung)" d="
      M127.28652333901424,-143.83053066857983
      A226.3605483373807,226.3605483373807 0 0,1 -93.890510383931,-95.66604585747857
    "></path><path stroke="green" marker-end="url(http://localhost:3000/app#arrow-Zuneigung)" d="
      M134.47448708205815,-48.23763642304742
      A95.86275738267108,95.86275738267108 0 0,1 127.28652333901424,-143.83053066857983
    "></path><path stroke="green" marker-end="url(http://localhost:3000/app#arrow-Zuneigung)" d="
      M134.47448708205815,-48.23763642304742
      A62.05547992178314,62.05547992178314 0 0,1 119.88979482660633,12.079602739041169
    "></path><path stroke="red" marker-end="url(http://localhost:3000/app#arrow-Abneigung)" d="
      M-93.890510383931,-95.66604585747857
      A226.3605483373807,226.3605483373807 0 0,1 127.28652333901424,-143.83053066857983
    "></path><path stroke="green" marker-end="url(http://localhost:3000/app#arrow-Zuneigung)" d="
      M119.88979482660633,12.079602739041169
      A62.05547992178314,62.05547992178314 0 0,1 134.47448708205815,-48.23763642304742
    "></path></g><g fill="currentColor" stroke-linecap="round" stroke-linejoin="round"><g transform="translate(127.28652333901424,-143.83053066857983)"><text x="16" y="0.31em" fill="none" stroke="white" stroke-width="3">Kind 1</text><circle stroke="white" stroke-width="1.5" fill="#C20768" r="16"></circle><text x="16" y="0.31em">Kind 1</text></g><g transform="translate(134.47448708205815,-48.23763642304742)"><text x="16" y="0.31em" fill="none" stroke="white" stroke-width="3">Kind 2</text><circle stroke="white" stroke-width="1.5" fill="#577275" r="16"></circle><text x="16" y="0.31em">Kind 2</text></g><g transform="translate(119.88979482660633,12.079602739041169)"><text x="16" y="0.31em" fill="none" stroke="white" stroke-width="3">Kind 3</text><circle stroke="white" stroke-width="1.5" fill="#E018DE" r="16"></circle><text x="16" y="0.31em">Kind 3</text></g><g transform="translate(48.58259991625413,161.9640833956051)"><text x="16" y="0.31em" fill="none" stroke="white" stroke-width="3">Kind 4</text><circle stroke="white" stroke-width="1.5" fill="#6D217C" r="16"></circle><text x="16" y="0.31em">Kind 4</text></g><g transform="translate(-93.890510383931,-95.66604585747857)"><text x="16" y="0.31em" fill="none" stroke="white" stroke-width="3">Kind 5</text><circle stroke="white" stroke-width="1.5" fill="#B1483A" r="16"></circle><text x="16" y="0.31em">Kind 5</text></g></g></svg>